<svg xmlns="http://www.w3.org/2000/svg" width="24" height="24" viewBox="0 0 24 24">
  <path d="M9 4 C6.2 4 5 6.4 6 8 C3.6 9 3.8 12.4 6 13 C5.6 16 9 17.6 11 15.6 L11 5 C10.4 4.4 9.8 4 9 4 Z" fill="#5a7fd0" stroke="#2f4e96" stroke-width="1.4" stroke-linejoin="round"/>
  <path d="M15 4 C17.8 4 19 6.4 18 8 C20.4 9 20.2 12.4 18 13 C18.4 16 15 17.6 13 15.6 L13 5 C13.6 4.4 14.2 4 15 4 Z" fill="#6f90db" stroke="#2f4e96" stroke-width="1.4" stroke-linejoin="round"/>
  <line x1="12" y1="5" x2="12" y2="16" stroke="#2f4e96" stroke-width="1.2"/>
</svg>
