<svg xmlns="http://www.w3.org/2000/svg" width="56" height="64" viewBox="0 0 56 64">
  <ellipse cx="28" cy="59" rx="13" ry="4" fill="#000000" opacity="0.12"/>
  <rect x="20" y="46" width="7" height="12" rx="3.5" fill="#2f4aa0"/>
  <rect x="31" y="47" width="7" height="11" rx="3.5" fill="#2f4aa0" transform="rotate(10 34 53)"/>
  <rect x="14" y="24" width="26" height="26" rx="11" fill="#598ce6"/>
  <rect x="14" y="24" width="10" height="26" rx="10" fill="#4f7fd6"/>
  <circle cx="50" cy="28" r="5.5" fill="#f0c9a0"/>
  <rect x="40" y="26" width="11" height="5" rx="2.5" fill="#f0c9a0" transform="rotate(-18 45 28)"/>
  <circle cx="27" cy="16" r="12" fill="#f0c9a0"/>
  <path d="M15 16 a12 12 0 0 1 24 0 q-12 -7 -24 0 z" fill="#6b4a2a"/>
  <circle cx="31" cy="16" r="2.4" fill="#23304d"/>
  <circle cx="24" cy="16" r="2" fill="#23304d"/>
</svg>
